<svg width="460" height="288" viewBox="0 0 460 288" fill="none" xmlns="http://www.w3.org/2000/svg">
<mask id="mask0" mask-type="alpha" maskUnits="userSpaceOnUse" x="26" y="0" width="357" height="265">
<path d="M204.929 259.255C191.651 254.805 193.693 250.829 160.638 238.237C131.277 227.053 61.6674 250.373 33.4584 171.131C-6.83397 57.8807 122.302 -31.1183 272.192 10.3664C302.792 18.8307 394.46 69.1601 381.007 159.262C374.053 205.788 336.043 245.712 284.84 258.609C261.565 264.486 232.769 268.595 204.929 259.255Z" fill="#B5A8E5"/>
</mask>
<g mask="url(#mask0)">
<path opacity="0.8" d="M204.929 259.255C191.651 254.805 193.693 250.829 160.638 238.237C131.277 227.053 61.6674 250.373 33.4584 171.131C-6.83397 57.8807 122.302 -31.1183 272.192 10.3664C302.792 18.8307 394.46 69.1601 381.007 159.262C374.053 205.788 336.043 245.712 284.84 258.609C261.565 264.486 232.769 268.595 204.929 259.255Z" fill="url(#paint0_linear)"/>
<path d="M197.676 110.455L140.697 110.455L140.697 218.392L197.676 218.392L197.676 110.455Z" fill="white"/>
<path d="M197.676 -2.01611L140.697 -2.01611L140.697 105.922L197.676 105.922L197.676 -2.01611Z" fill="white"/>
<path d="M259.174 110.455L202.196 110.455L202.196 218.392L259.174 218.392L259.174 110.455Z" fill="white"/>
<path d="M259.174 -2.01587L202.196 -2.01587L202.196 105.922L259.174 105.922L259.174 -2.01587Z" fill="white"/>
<path d="M320.673 110.455L263.695 110.455L263.695 218.392L320.673 218.392L320.673 110.455Z" fill="white"/>
<path d="M320.433 -2.01587L264.023 -2.01587L264.023 117.129L320.433 117.129L320.433 -2.01587Z" fill="white"/>
<path d="M345.742 223.814L34.3655 223.814C31.5967 223.814 29.3618 221.413 29.3618 218.438C29.3618 215.463 31.5967 213.062 34.3655 213.062L345.742 213.062C348.511 213.062 350.745 215.463 350.745 218.438C350.745 221.392 348.511 223.814 345.742 223.814Z" fill="#351717"/>
<path d="M304.51 178.773L349.286 178.773C351.152 178.773 352.657 180.495 352.657 182.63L352.657 189.974C352.657 192.11 351.152 193.832 349.286 193.832L304.51 193.832" fill="white"/>
<path d="M349.304 194.965L301.767 194.965L301.767 177.618L349.304 177.618C351.723 177.618 353.666 179.863 353.666 182.609L353.666 189.975C353.666 192.721 351.704 194.965 349.304 194.965Z" fill="#FCCC44"/>
<path d="M349.152 218.588L303.805 218.588L303.805 216.584L303.805 204.794L303.805 202.789L349.209 202.789C352.98 202.789 356.046 206.254 356.123 210.547C356.199 214.971 353.018 218.588 349.152 218.588Z" fill="#351717"/>
<path d="M347.933 177.183L302.91 177.183L302.91 163.388L347.933 163.388C350.581 163.388 352.714 165.829 352.714 168.858L352.714 171.735C352.714 174.742 350.581 177.183 347.933 177.183Z" fill="#7CA417"/>
<path d="M344.448 217.63L300.681 217.63L300.681 203.813L344.448 203.813C347.781 203.813 350.485 206.908 350.485 210.721C350.485 214.535 347.781 217.63 344.448 217.63Z" fill="#A564A6"/>
<path d="M344.371 218.588L299.9 218.588C299.424 218.588 299.024 218.131 299.024 217.586C299.024 217.041 299.424 216.584 299.9 216.584L344.39 216.584C347.285 216.584 349.666 213.881 349.609 210.569C349.552 207.365 347.266 204.772 344.448 204.772L299.9 204.772C299.424 204.772 299.024 204.314 299.024 203.77C299.024 203.225 299.424 202.767 299.9 202.767L344.448 202.767C348.219 202.767 351.285 206.232 351.361 210.525C351.437 214.993 348.257 218.588 344.371 218.588Z" fill="#A564A6"/>
<path d="M348.142 202.549L300.643 202.549C300.3 202.549 300.033 202.244 300.033 201.852C300.033 201.46 300.3 201.155 300.643 201.155L300.643 196.622C300.3 196.622 300.033 196.317 300.033 195.924C300.033 195.532 300.3 195.227 300.643 195.227L348.199 195.227C349.971 195.227 351.418 196.905 351.38 198.932C351.361 200.958 349.894 202.549 348.142 202.549Z" fill="#3A4A1D"/>
<path d="M344.066 194.944L300.28 194.944C299.728 194.944 299.271 194.42 299.271 193.789C299.271 193.157 299.728 192.634 300.28 192.634L344.066 192.634C345.361 192.634 346.428 191.435 346.428 189.931L346.428 182.587C346.428 181.105 345.38 179.885 344.066 179.885L300.28 179.885C299.728 179.885 299.271 179.362 299.271 178.73C299.271 178.098 299.728 177.575 300.28 177.575L344.066 177.575C346.485 177.575 348.427 179.82 348.427 182.565L348.427 189.909C348.427 192.699 346.485 194.944 344.066 194.944Z" fill="#EA9A26"/>
<path d="M300.32 201.307L347.191 201.307C347.667 201.307 348.067 200.849 348.067 200.304L348.067 197.101C348.067 196.556 347.667 196.098 347.191 196.098L300.32 196.098L300.32 201.307Z" fill="#E1D7F7"/>
<path d="M345.799 202.549L299.976 202.549C299.633 202.549 299.366 202.244 299.366 201.852C299.366 201.46 299.633 201.155 299.976 201.155L345.799 201.155C346.885 201.155 347.799 200.196 347.818 198.954C347.856 197.668 346.942 196.622 345.837 196.622L299.957 196.622C299.614 196.622 299.347 196.317 299.347 195.924C299.347 195.532 299.614 195.227 299.957 195.227L345.837 195.227C347.609 195.227 349.056 196.905 349.018 198.932C348.999 200.958 347.533 202.549 345.799 202.549Z" fill="#7CA417"/>
<path d="M306.433 177.183L300.72 177.183L300.72 163.388L306.433 163.388C309.081 163.388 311.214 165.829 311.214 168.858L311.214 171.735C311.195 174.742 309.062 177.183 306.433 177.183Z" fill="#E1D7F7"/>
<path d="M306.433 163.388L299.443 163.388C299.101 163.388 298.834 163.694 298.834 164.086L298.834 164.217C298.834 164.609 299.101 164.914 299.443 164.914L306.433 164.914C308.338 164.914 309.861 166.679 309.861 168.837L309.861 171.713C309.861 173.892 308.319 175.636 306.433 175.636L299.443 175.636C299.101 175.636 298.834 175.941 298.834 176.333L298.834 176.464C298.834 176.856 299.101 177.161 299.443 177.161L306.433 177.161C309.08 177.161 311.213 174.72 311.213 171.691L311.213 168.837C311.194 165.829 309.061 163.388 306.433 163.388Z" fill="#3A4A1D"/>
<path d="M307.271 166.787L300.7 166.787L300.7 166.09L307.271 166.09C307.423 166.09 307.557 166.243 307.557 166.417L307.557 166.46C307.538 166.656 307.423 166.787 307.271 166.787Z" fill="white"/>
<path d="M307.271 168.334L300.7 168.334L300.7 167.637L307.271 167.637C307.423 167.637 307.557 167.79 307.557 167.964L307.557 168.008C307.538 168.182 307.423 168.334 307.271 168.334Z" fill="white"/>
<path d="M307.271 169.86L300.7 169.86L300.7 169.163L307.271 169.163C307.423 169.163 307.557 169.315 307.557 169.489L307.557 169.533C307.538 169.707 307.423 169.86 307.271 169.86Z" fill="white"/>
<path d="M307.271 171.385L300.7 171.385L300.7 170.689L307.271 170.689C307.423 170.689 307.557 170.841 307.557 171.015L307.557 171.059C307.538 171.255 307.423 171.385 307.271 171.385Z" fill="white"/>
<path d="M307.271 172.932L300.7 172.932L300.7 172.236L307.271 172.236C307.423 172.236 307.557 172.388 307.557 172.562L307.557 172.606C307.538 172.78 307.423 172.932 307.271 172.932Z" fill="white"/>
<path d="M307.271 174.458L300.7 174.458L300.7 173.761L307.271 173.761C307.423 173.761 307.557 173.913 307.557 174.088L307.557 174.131C307.538 174.327 307.423 174.458 307.271 174.458Z" fill="white"/>
<path d="M344.067 181.345L301.748 181.345L301.748 180.648L344.067 180.648C344.219 180.648 344.353 180.8 344.353 180.974L344.353 181.018C344.353 181.192 344.219 181.345 344.067 181.345Z" fill="white"/>
<path d="M344.067 183.109L301.748 183.109L301.748 182.413L344.067 182.413C344.219 182.413 344.353 182.565 344.353 182.739L344.353 182.783C344.353 182.957 344.219 183.109 344.067 183.109Z" fill="white"/>
<path d="M344.067 184.875L301.748 184.875L301.748 184.178L344.067 184.178C344.219 184.178 344.353 184.331 344.353 184.505L344.353 184.548C344.353 184.722 344.219 184.875 344.067 184.875Z" fill="white"/>
<path d="M344.067 186.64L301.748 186.64L301.748 185.943L344.067 185.943C344.219 185.943 344.353 186.096 344.353 186.27L344.353 186.313C344.353 186.488 344.219 186.64 344.067 186.64Z" fill="white"/>
<path d="M344.067 188.405L301.748 188.405L301.748 187.709L344.067 187.709C344.219 187.709 344.353 187.861 344.353 188.035L344.353 188.079C344.353 188.253 344.219 188.405 344.067 188.405Z" fill="white"/>
<path d="M344.067 190.17L301.748 190.17L301.748 189.474L344.067 189.474C344.219 189.474 344.353 189.626 344.353 189.8L344.353 189.844C344.353 190.018 344.219 190.17 344.067 190.17Z" fill="white"/>
<path d="M344.067 191.936L301.748 191.936L301.748 191.239L344.067 191.239C344.219 191.239 344.353 191.392 344.353 191.566L344.353 191.609C344.353 191.784 344.219 191.936 344.067 191.936Z" fill="white"/>
<path d="M342.981 206.645L300.662 206.645L300.662 205.949L342.981 205.949C343.133 205.949 343.267 206.101 343.267 206.275L343.267 206.319C343.267 206.515 343.152 206.645 342.981 206.645Z" fill="white"/>
<path d="M342.981 208.411L300.662 208.411L300.662 207.714L342.981 207.714C343.133 207.714 343.267 207.866 343.267 208.04L343.267 208.084C343.267 208.28 343.152 208.411 342.981 208.411Z" fill="white"/>
<path d="M342.981 210.176L300.662 210.176L300.662 209.479L342.981 209.479C343.133 209.479 343.267 209.631 343.267 209.805L343.267 209.849C343.267 210.045 343.152 210.176 342.981 210.176Z" fill="white"/>
<path d="M342.981 211.94L300.662 211.94L300.662 211.244L342.981 211.244C343.133 211.244 343.267 211.396 343.267 211.57L343.267 211.614C343.267 211.81 343.152 211.94 342.981 211.94Z" fill="white"/>
<path d="M342.981 213.706L300.662 213.706L300.662 213.009L342.981 213.009C343.133 213.009 343.267 213.162 343.267 213.336L343.267 213.379C343.267 213.575 343.152 213.706 342.981 213.706Z" fill="white"/>
<path d="M342.981 215.471L300.662 215.471L300.662 214.774L342.981 214.774C343.133 214.774 343.267 214.927 343.267 215.101L343.267 215.144C343.267 215.34 343.152 215.471 342.981 215.471Z" fill="white"/>
<path d="M342.619 198.168L300.3 198.168L300.3 197.472L342.619 197.472C342.772 197.472 342.905 197.624 342.905 197.798L342.905 197.842C342.905 198.016 342.772 198.168 342.619 198.168Z" fill="white"/>
<path d="M342.619 199.934L300.3 199.934L300.3 199.237L342.619 199.237C342.772 199.237 342.905 199.389 342.905 199.564L342.905 199.607C342.905 199.781 342.772 199.934 342.619 199.934Z" fill="white"/>
<path d="M103.794 159.589L95.1882 114.043C95.0795 113.432 94.5362 112.997 93.9278 112.997L52.3997 112.997C51.7912 112.997 51.248 113.432 51.1393 114.043L42.5338 159.589C42.3817 160.373 42.9901 161.114 43.7942 161.114L102.533 161.114C103.337 161.114 103.946 160.373 103.794 159.589Z" fill="white"/>
<path d="M75.5866 173.579C75.0434 168.567 78.2596 163.882 79.1723 162.64C79.2809 162.509 79.1723 162.313 79.0201 162.313L73.457 162.313L72.8703 162.313L67.3071 162.313C67.1333 162.313 67.0463 162.509 67.155 162.64C68.0894 163.882 71.2839 168.545 70.7623 173.558C69.6975 183.691 61.2224 192.67 61.2224 200.863C61.2224 204.677 63.2434 210.648 63.8953 212.675C64.004 213.002 64.3082 213.242 64.6559 213.242L73.1745 213.242L81.6931 213.242C82.0408 213.242 82.345 213.024 82.4537 212.675C83.1056 210.626 85.1266 204.677 85.1266 200.863C85.1266 192.691 76.6515 183.713 75.5866 173.579Z" fill="#351717"/>
<path d="M67.8106 194.282C67.7672 193.65 67.2239 193.149 66.572 193.149L59.618 193.149L56.2062 193.149L49.2523 193.149C48.6004 193.149 48.0788 193.65 48.0136 194.282L47.2531 202.999L47.2531 204.241C47.2531 208.992 51.0994 213.263 55.8151 213.263L56.2062 213.263L59.618 213.263L60.0092 213.263C64.7466 213.263 68.5712 208.97 68.5712 204.241L68.5712 202.999L67.8106 194.282Z" fill="#FCCC44"/>
<path d="M105.815 194.979C105.098 193.65 103.902 192.8 102.338 192.517C101.295 192.321 100.404 192.408 99.6867 192.626C99.7084 191.71 99.7084 190.773 99.7084 189.836C99.7084 189.705 99.5997 189.575 99.4476 189.575L80.2373 189.575C80.107 189.575 79.9766 189.684 79.9766 189.836C79.8244 199.686 81.8889 209.58 83.6274 212.98C83.7143 213.154 83.8882 213.263 84.0837 213.263L95.6229 213.263C95.8185 213.263 95.9924 213.154 96.0793 212.98C96.5791 211.977 97.1224 210.43 97.6222 208.491C100.056 207.619 104.142 205.047 105.967 200.754C106.619 199.229 106.814 196.853 105.815 194.979ZM104.228 200.013C102.925 203.086 100.165 205.178 98.1437 206.224C98.8391 202.934 99.4042 198.902 99.6215 194.674C100.186 194.391 100.947 194.195 102.012 194.369C103.012 194.543 103.729 195.045 104.163 195.851C104.859 197.18 104.685 198.945 104.228 200.013Z" fill="#D12A4A"/>
<path d="M217.741 182.806L179.472 182.806L179.472 212.204L217.741 212.204L217.741 182.806Z" fill="#351717"/>
<path d="M241.21 213.141L156.003 213.141C156.003 208.608 159.675 204.925 164.196 204.925L232.996 204.925C237.538 204.925 241.21 208.608 241.21 213.141Z" fill="#A564A6"/>
<path d="M274.329 193.091L122.776 193.091C117.583 193.091 113.367 188.864 113.367 183.655L113.367 63.1871C113.367 57.9787 117.583 53.751 122.776 53.751L274.329 53.751C279.522 53.751 283.738 57.9787 283.738 63.1871L283.738 183.655C283.738 188.864 279.522 193.091 274.329 193.091Z" fill="#A564A6"/>
<path d="M274.438 53.9253L122.886 53.9253C117.692 53.9253 113.476 58.153 113.476 63.3614L113.476 166.548L283.869 166.548L283.869 63.3614C283.847 58.153 279.632 53.9253 274.438 53.9253Z" fill="#351717"/>
<path d="M198.596 185.115C201.872 185.115 204.528 182.452 204.528 179.166C204.528 175.88 201.872 173.217 198.596 173.217C195.319 173.217 192.663 175.88 192.663 179.166C192.663 182.452 195.319 185.115 198.596 185.115Z" fill="#DD8ADF"/>
<path d="M132.142 155.151C133.655 155.151 134.88 153.921 134.88 152.405C134.88 150.889 133.655 149.659 132.142 149.659C130.63 149.659 129.404 150.889 129.404 152.405C129.404 153.921 130.63 155.151 132.142 155.151Z" fill="#7CA417"/>
<path d="M138.966 155.151C140.478 155.151 141.704 153.921 141.704 152.405C141.704 150.888 140.478 149.659 138.966 149.659C137.453 149.659 136.228 150.888 136.228 152.405C136.228 153.921 137.453 155.151 138.966 155.151Z" fill="#E30613"/>
<mask id="mask1" mask-type="alpha" maskUnits="userSpaceOnUse" x="119" y="60" width="159" height="100">
<path d="M277.588 60.7246L119.951 60.7246L119.951 159.4L277.588 159.4L277.588 60.7246Z" fill="white"/>
</mask>
<g mask="url(#mask1)">
<path d="M277.588 60.7246L119.951 60.7246L119.951 159.4L277.588 159.4L277.588 60.7246Z" fill="white"/>
<path d="M194.63 64.1109C204.379 65.4242 209.618 75.2596 211.219 78.2656C217.185 89.5311 215.584 107.801 212.557 118.045C207.959 133.63 203.972 139.437 195.066 144.574C187.354 149.01 178.449 148.806 170.853 142.998C161.162 135.585 160.259 121.255 163.228 112.441C165.847 104.707 171.842 101.088 174.2 93.7921C174.869 91.6908 174.52 90.9028 176.673 80.0751C179.496 66.0079 189.508 63.4105 194.63 64.1109Z" fill="#331007"/>
<path d="M230.688 126.216C230.484 125.691 229.407 121.08 223.936 118.833C222.248 118.132 220.385 117.402 215.03 116.994C207.26 116.41 206.794 114.075 199.868 113.638C197.365 113.492 194.949 113.287 192.01 114.309C181.678 117.957 179.03 120 170.532 120.671C159.968 121.488 161.597 135.03 163.111 137.54C169.659 148.543 167.098 144.428 171.551 156.423C174.781 165.178 173.879 173.671 175.538 181.931C179.059 199.354 210.694 196.844 217.708 188.964C221.84 184.324 218.552 181.58 223.121 163.719C223.936 160.509 223.965 160.976 228.33 145.42C231.503 134.359 232.492 130.594 230.688 126.216Z" fill="#FCCC44"/>
<path d="M192.708 105.349C192.883 104.824 193.814 104.941 196.754 104.444C198.675 104.123 199.81 103.948 201.236 103.54C203.302 102.956 204 102.489 204.379 102.868C204.903 103.394 204.117 105.087 203.476 106.02C203.127 106.517 201.701 108.676 198.995 108.939C197.103 109.114 195.706 108.268 194.949 107.83C194.746 107.684 192.417 106.225 192.708 105.349Z" stroke="black" stroke-miterlimit="10"/>
<path d="M188.285 103.16C186.393 117.578 190.613 123.706 192.418 125.399C195.328 128.113 198.587 128.376 201.731 127.471C206.067 126.216 207.522 119.796 206.503 116.673C204.845 111.682 206.562 108.151 205.689 103.16C204.03 93.8209 189.333 95.2802 188.285 103.16Z" fill="#FFCDA1"/>
<path d="M205.688 109.464C205.572 107.771 205.746 106.166 205.805 104.473C205.776 103.831 205.688 103.16 205.572 102.46C203.913 93.1788 189.303 94.6089 188.285 102.46C188.023 104.444 187.877 106.254 187.848 107.946C187.848 108.122 187.848 108.297 187.877 108.443C189.041 110.223 191.282 113.171 194.775 115.476C198.471 117.899 200.508 117.578 201.439 117.344C201.468 117.344 202.341 117.081 203.156 116.527C204.117 115.856 205.019 114.747 205.863 113.316C205.63 111.945 205.63 110.69 205.688 109.464Z" fill="#D66730"/>
<path d="M193.377 69.1598C198.849 69.0138 199.256 68.3426 201.002 68.9263C204.728 70.2104 206.357 74.4714 207.958 78.5865C210.694 85.7369 210.694 91.9533 210.635 94.0838C210.403 103.335 207.172 111.566 203.243 114.076C202.283 114.688 201.264 114.951 201.235 114.98C200.158 115.272 197.743 115.593 193.407 112.967C188.605 110.048 185.782 106.108 184.676 104.415C181.009 98.841 180.106 93.5585 179.524 90.0271C179.001 86.7875 178.506 83.5772 179.292 79.4621C179.874 76.456 180.892 71.2027 184.676 69.3641C186.48 68.4885 187.062 69.3349 193.377 69.1598Z" fill="#FFCDA1"/>
<path d="M195.852 107.596C195.735 107.45 195.793 107.246 195.968 107.188C196.725 106.983 198.616 106.575 200.799 106.371C202.312 106.254 203.768 106.371 204.35 106.429C204.495 106.458 204.612 106.604 204.553 106.75C204.291 107.538 203.302 109.639 200.624 109.814C198.238 110.019 196.492 108.297 195.852 107.596Z" fill="#F15A24"/>
<path d="M203.419 89.3557C203.506 88.8595 203.71 88.4218 203.943 88.0424C204.204 87.6338 204.525 87.2835 204.874 86.9917C205.601 86.3496 206.62 86.1453 207.551 86.0286C207.784 85.9994 208.017 85.9702 208.25 85.9702L208.599 85.9702C208.715 85.9702 208.861 85.9994 208.977 85.9994C209.472 86.0578 209.938 86.2621 210.345 86.4664C211.16 86.9333 211.8 87.5462 212.412 88.1299L212.324 88.2758C211.917 88.1007 211.538 87.8672 211.16 87.6921C210.782 87.517 210.403 87.3419 210.025 87.2544C209.647 87.1376 209.268 87.0792 208.919 87.1084L208.657 87.1376L208.366 87.196C208.162 87.2252 207.988 87.2835 207.813 87.3419C207.639 87.4003 207.464 87.4878 207.289 87.5462C207.115 87.6338 206.94 87.7213 206.795 87.8381C206.475 88.0424 206.154 88.2175 205.805 88.3926L204.728 88.9471C204.35 89.1514 203.972 89.3265 203.535 89.5308L203.419 89.3557Z" fill="#512618"/>
<path d="M186.015 89.2679C186.655 88.5383 187.441 87.9546 188.314 87.4585C189.187 86.9915 190.177 86.6705 191.224 86.5537C191.486 86.5245 191.748 86.5245 192.01 86.4954C192.272 86.4954 192.534 86.4954 192.796 86.4954C193.32 86.5245 193.844 86.6705 194.338 86.9039C195.27 87.4001 196.084 88.1589 196.463 89.1804L196.346 89.3263C195.299 89.0928 194.484 88.8593 193.669 88.655C193.262 88.5675 192.883 88.4508 192.476 88.3048C192.272 88.2465 192.068 88.1881 191.865 88.1297C191.661 88.1005 191.457 88.0422 191.253 88.0422C190.846 88.013 190.409 88.013 189.973 88.0713C189.536 88.1005 189.1 88.1881 188.663 88.3048C187.79 88.5091 186.946 88.9177 186.131 89.3847L186.015 89.2679Z" fill="#512618"/>
<path d="M217.387 98.1404C217.096 95.6305 216.66 93.1206 216.136 90.669C215.088 85.7367 213.546 80.9212 211.538 76.31C210.606 74.1503 209.501 72.0489 208.133 70.1519C206.678 67.8463 204.757 65.6282 202.138 64.0231C198.82 61.9801 194.92 61.338 193.407 62.0093C193.348 62.0385 192.504 62.4179 191.922 62.6805C190.613 63.2351 187.993 62.126 185.52 62.7389C178.186 64.49 172.569 73.4206 170.561 83.8105C167.767 98.3155 163.547 105.232 162.761 106.779C161.975 108.326 161.219 109.902 160.579 111.507C159.938 113.112 159.327 114.747 158.803 116.41C158.279 118.074 157.843 119.767 157.494 121.459C156.766 124.874 156.388 128.376 156.533 131.849C156.621 133.6 156.795 135.322 157.144 137.044C157.494 138.766 157.959 140.43 158.541 142.064C159.735 145.333 161.481 148.368 163.634 151.082C164.711 152.425 165.875 153.68 167.156 154.847C167.796 155.431 168.465 155.985 169.135 156.481C169.833 157.007 170.503 157.503 171.288 157.882L171.405 157.649C170.706 157.24 170.037 156.686 169.397 156.16C168.756 155.606 168.145 155.022 167.563 154.438C166.37 153.242 165.293 151.958 164.304 150.586C162.354 147.843 160.84 144.836 159.822 141.655C159.327 140.079 158.949 138.445 158.687 136.781C158.454 135.147 158.338 133.483 158.338 131.82C158.309 128.493 158.774 125.166 159.589 121.955C159.996 120.35 160.491 118.745 161.073 117.198C161.131 117.023 161.219 116.848 161.277 116.673C158.512 126.158 158.891 134.738 161.073 141.48C163.984 150.469 171.696 157.182 173.966 158.232C174.606 158.524 178.535 160.334 180.456 158.67C181.242 157.999 180.892 157.415 181.562 156.423C183.541 153.592 188.896 155.11 189.39 153.738C189.827 152.57 187.499 151.228 184.909 148.339C168.204 129.806 185.258 124.407 183.803 103.627C182.377 83.1101 197.132 83.2852 196.812 73.5082C196.753 71.4652 197.161 71.6695 197.481 72.6035C198.936 76.9812 212.615 85.299 214.332 94.3755C215.816 102.197 214.623 108.326 212.265 112.82C211.683 113.929 210.286 116.615 209.966 117.14C208.336 119.883 206.823 121.401 207.143 121.955C207.376 122.364 208.686 121.926 209.501 121.43C212.382 119.679 213.429 118.015 213.662 117.548C214.594 115.827 215.35 113.287 215.787 110.135C215.758 110.515 215.729 110.894 215.699 111.274C215.612 111.887 215.554 112.499 215.467 113.112C215.292 114.309 215.059 115.535 214.71 116.702C214.361 117.869 213.895 119.008 213.051 119.912L213.168 120.058C213.72 119.708 214.128 119.212 214.535 118.687C214.71 118.424 214.914 118.161 215.059 117.869L215.292 117.432C215.379 117.286 215.438 117.14 215.496 116.994C216.02 115.827 216.427 114.601 216.718 113.375C217.038 112.149 217.242 110.865 217.417 109.61C217.591 108.355 217.678 107.071 217.737 105.816C217.795 103.189 217.678 100.65 217.387 98.1404Z" fill="#512618"/>
<path d="M188.838 93.6459C188.896 93.9086 189.769 94.5215 192.069 94.1129C193.087 93.9378 194.048 93.5 193.96 92.9747C193.873 92.4785 193.058 91.7197 192.156 91.7197C190.613 91.7489 188.751 93.1498 188.838 93.6459Z" fill="#E6E6E6"/>
<path d="M204.728 92.4785C204.757 92.712 205.601 93.354 207.784 93.033C208.744 92.8871 209.705 92.5077 209.617 92.0115C209.559 91.5446 208.803 90.7858 207.959 90.7566C206.474 90.7566 204.67 92.0115 204.728 92.4785Z" fill="#E6E6E6"/>
<path d="M190.381 92.6247C190.585 90.932 193.466 90.7569 193.466 92.9749C193.437 95.2221 190.032 95.3388 190.381 92.6247Z" fill="#512618"/>
<path d="M194.542 93.062C193.959 92.5951 193.377 92.4491 192.795 92.3908C192.65 92.3616 192.504 92.3616 192.359 92.3616C192.213 92.3616 192.039 92.3616 191.922 92.3616C191.66 92.3908 191.428 92.4491 191.136 92.5367C190.613 92.7118 190.031 93.0329 189.39 93.2955C189.07 93.4415 188.75 93.5582 188.401 93.6457C188.052 93.7333 187.673 93.7917 187.324 93.7625C187.877 93.2955 188.343 92.8286 188.866 92.3908C189.39 91.953 189.972 91.5152 190.729 91.2525C191.107 91.1358 191.515 91.0482 191.951 91.0774C192.184 91.1066 192.359 91.1358 192.533 91.165C192.621 91.1942 192.708 91.2234 192.824 91.2525L193.086 91.3693C193.436 91.5152 193.785 91.7487 194.047 92.0405C194.309 92.3324 194.512 92.6826 194.542 93.062Z" fill="#512618"/>
<path d="M210.025 92.1283C209.501 91.7781 209.006 91.6905 208.541 91.6322C208.424 91.6322 208.308 91.6322 208.192 91.6322C208.075 91.6322 207.93 91.6322 207.842 91.6322C207.639 91.6613 207.435 91.7197 207.231 91.7781C206.795 91.924 206.3 92.1867 205.776 92.391C205.514 92.5077 205.223 92.5953 204.932 92.6536C204.641 92.712 204.321 92.7704 204.001 92.712C204.437 92.2742 204.816 91.8656 205.252 91.4862C205.689 91.1068 206.183 90.7274 206.824 90.4939C207.144 90.3772 207.522 90.3188 207.871 90.348C208.075 90.3772 208.221 90.4064 208.366 90.4356C208.453 90.4648 208.541 90.4648 208.599 90.4939L208.832 90.5815C209.152 90.7274 209.443 90.9317 209.647 91.1944C209.85 91.4862 209.996 91.8073 210.025 92.1283Z" fill="#512618"/>
<path d="M206.533 91.7779C206.707 90.3479 209.152 90.2019 209.152 92.0698C209.123 93.996 206.242 94.1127 206.533 91.7779Z" fill="#512618"/>
</g>
<path d="M314.731 55.4281C315.682 34.919 307.77 28.5018 302.797 27.3744C299.425 26.5939 300.636 27.4611 298.82 27.1143C296.009 26.5506 295.101 22.6916 285.805 22.7783C250.999 23.0385 248.059 56.5121 256.317 69.3899C265.873 84.2622 279.838 89.1618 291.599 87.2974C302.408 85.563 313.564 80.0129 314.731 55.4281Z" fill="#351717"/>
<path d="M286.324 102.993C279.881 104.294 280.27 105.812 266.78 111.839C256.446 116.435 252.512 118.776 250.307 119.904C234.006 128.185 238.719 147.567 238.806 151.036C240.146 195.826 244.383 200.813 241.097 222.926C240.924 224.183 239.584 226.915 235.736 246.384C235.476 247.684 233.747 257.05 237.638 263.294C238.2 264.161 239.454 266.156 241.875 267.153C244.772 268.367 247.712 267.37 248.404 267.153C253.679 265.548 278.498 251.587 338.511 277.169C339.895 277.733 343.484 277.646 346.553 275.651C349.84 273.527 351.007 269.841 351.526 267.977C357.017 248.291 377.425 172.412 358.79 126.494C357.449 123.156 352.78 118.646 345.732 115.741C332.372 110.191 329.129 112.489 314.687 106.896C309.369 104.771 293.631 101.519 286.324 102.993Z" fill="#D12A4A"/>
<path d="M311.229 64.6203C307.986 93.5845 311.921 104.077 312.829 107.373C316.115 119.73 302.322 126.278 292.421 125.324C291.513 125.237 279.795 124.24 277.287 116.478C276.639 114.397 276.769 112.576 276.639 111.449C275.558 101.996 274.391 94.0614 273.439 87.1239C272.834 82.7012 279.06 84.3922 293.285 75.3301C305.003 67.8722 311.532 61.9753 311.229 64.6203Z" fill="#FFCDA1"/>
<path d="M306.386 63.6661C305.954 64.3599 305.651 65.1403 305.651 66.181C305.608 70.3001 292.377 55.4711 291.037 43.7207C283.946 48.6203 265.181 57.4657 257.441 55.1676C257.225 58.1161 256.966 60.6743 256.706 62.8856C256.836 64.0997 257.009 65.3571 257.182 66.7013C258.393 75.8068 261.722 96.0557 268.726 104.814C270.759 107.329 275.126 111.058 281.006 111.362C291.686 111.882 300.679 101.953 303.706 95.4487C305.392 91.8065 305.565 85.8662 304.527 80.2295C304.311 78.9287 304.614 80.7932 307.467 81.14C310.148 81.4869 314.299 75.7201 314.428 68.1755C314.601 59.1134 310.364 61.0212 307.986 62.2352C307.64 62.5388 306.602 63.3626 306.386 63.6661Z" fill="#FFCDA1"/>
<path d="M266.824 65.7909C265.527 65.921 264.489 65.8343 263.538 65.7042C263.062 65.6175 262.63 65.4874 262.154 65.3139C261.722 65.1405 261.246 64.9237 260.814 64.7936C260.597 64.7503 260.338 64.7069 260.122 64.6635C259.906 64.6202 259.646 64.6202 259.387 64.5768C258.911 64.5335 258.436 64.5335 257.96 64.5768C257.484 64.6202 257.009 64.7503 256.533 64.9237C256.058 65.0971 255.582 65.4007 255.106 65.6175L254.933 65.444C255.106 65.2272 255.279 65.0104 255.452 64.7936C255.625 64.5768 255.841 64.36 256.058 64.1866C256.49 63.7963 257.009 63.4495 257.528 63.1459C258.09 62.8858 258.652 62.669 259.257 62.5389C259.56 62.4955 259.862 62.4522 260.165 62.4088C260.468 62.4088 260.77 62.3655 261.073 62.3655C261.678 62.3655 262.284 62.3221 262.889 62.3655C263.494 62.4088 264.1 62.5389 264.619 62.8424C265.137 63.1026 265.656 63.4928 266.089 63.9264C266.521 64.36 266.91 64.8803 267.126 65.5741L266.824 65.7909Z" fill="#351717"/>
<path d="M277.633 64.3167C277.979 63.3628 278.628 62.5823 279.32 61.9753C280.011 61.3249 280.833 60.8046 281.654 60.4143C282.476 60.0241 283.384 59.8073 284.335 59.7206L285.027 59.6772L285.719 59.6772C286.194 59.6772 286.627 59.6772 287.102 59.6772C287.535 59.6772 288.01 59.7206 288.443 59.7206L289.134 59.764C289.351 59.8073 289.567 59.8073 289.826 59.8507C290.734 60.0241 291.599 60.2409 292.464 60.5011C294.15 61.1081 295.707 61.9753 297.047 63.0593L296.874 63.3628C295.317 62.7557 293.674 62.3221 292.075 62.1487C291.253 62.062 290.475 62.0186 289.697 62.062L289.091 62.1053L288.486 62.1487C288.097 62.1921 287.708 62.2788 287.319 62.3221C286.54 62.4522 285.762 62.7124 285.027 62.9725C284.292 63.2327 283.557 63.4495 282.822 63.6229C282.044 63.7964 281.308 63.9264 280.487 64.0565C279.665 64.1866 278.844 64.3167 277.936 64.4901L277.633 64.3167Z" fill="#351717"/>
<path d="M289.481 69.043C289.481 69.4332 288.227 70.6039 284.595 70.4738C282.995 70.4305 281.395 69.9535 281.438 69.173C281.482 68.3926 282.563 67.0484 283.946 66.8316C286.367 66.5281 289.524 68.2625 289.481 69.043Z" fill="#E6E6E6"/>
<path d="M265.57 70.9943C265.57 71.2978 264.576 72.2084 261.722 72.1217C260.468 72.0783 259.214 71.7314 259.214 71.081C259.258 70.474 260.079 69.39 261.16 69.2599C263.149 68.9997 265.614 70.3873 265.57 70.9943Z" fill="#E6E6E6"/>
<path d="M287.101 67.9157C286.28 65.4876 282.042 66.0946 282.691 69.3466C283.383 72.5986 288.398 71.8181 287.101 67.9157Z" fill="#351717"/>
<path d="M280.919 69.7365C280.962 69.433 281.005 69.1729 281.049 68.8694C281.135 68.5659 281.222 68.3057 281.395 68.0022C281.74 67.4385 282.303 66.9182 282.908 66.6581C283.211 66.528 283.513 66.4413 283.816 66.3545C284.119 66.2678 284.421 66.2678 284.724 66.2678C285.329 66.2678 285.935 66.3979 286.497 66.4846C286.799 66.528 287.059 66.6147 287.361 66.7014C287.621 66.7881 287.923 66.8749 288.183 66.9616C288.702 67.1784 289.221 67.4385 289.696 67.6987C290.647 68.2623 291.512 68.9127 292.247 69.7365L292.074 69.91C291.166 69.433 290.172 69.0428 289.221 68.7393C288.745 68.6092 288.226 68.4791 287.751 68.4358C287.491 68.3924 287.275 68.3491 287.015 68.3491C286.756 68.3491 286.54 68.3057 286.28 68.3057C285.805 68.3057 285.329 68.3924 284.897 68.5225L284.594 68.6092C284.508 68.6526 284.378 68.6526 284.292 68.6959C284.075 68.7393 283.859 68.7826 283.643 68.826C283.254 68.8694 282.908 68.9561 282.519 69.1295C282.303 69.2162 282.086 69.3463 281.87 69.4764C281.611 69.6065 281.351 69.7799 281.049 69.8666L280.919 69.7365Z" fill="#351717"/>
<path d="M263.624 70.1705C263.018 68.2627 259.689 68.6963 260.164 71.2545C260.683 73.7693 264.618 73.2057 263.624 70.1705Z" fill="#351717"/>
<path d="M258.651 71.3845C258.651 70.9076 258.695 70.4306 258.868 69.9536C259.084 69.4767 259.473 68.9997 259.905 68.6962C260.338 68.3927 260.9 68.2192 261.419 68.2192C261.937 68.2192 262.456 68.306 262.932 68.436C263.407 68.5661 263.84 68.6962 264.272 68.913C264.705 69.1298 265.05 69.3466 265.44 69.6068C266.175 70.1271 266.78 70.6908 267.342 71.3845L267.169 71.5579C266.477 71.1677 265.699 70.8642 264.921 70.6474C264.532 70.5173 264.186 70.4739 263.797 70.3872C263.451 70.3439 263.062 70.3005 262.716 70.3005C262.37 70.3005 262.067 70.4306 261.764 70.5173C261.505 70.6474 261.246 70.6907 260.943 70.7775C260.684 70.8208 260.381 70.9075 260.078 71.0376C259.732 71.1677 259.343 71.4279 258.824 71.5579L258.651 71.3845Z" fill="#351717"/>
<path d="M305.997 66.3983C306.213 64.5338 308.461 57.2494 303.489 62.8428C302.624 63.8401 303.23 79.1893 297.047 85.9968C294.798 88.4683 291.339 90.4628 289.177 89.8991C285.935 89.0753 281.395 87.2542 276.422 87.471C272.228 87.6444 270.11 89.2054 267.818 90.2027C263.235 92.1972 259.43 80.23 259.43 80.23C260.035 83.3085 260.943 87.5577 262.024 93.3679C264.186 104.858 273.785 114.311 280.876 114.571C291.426 114.918 307.121 101.129 307.813 88.1648C308.029 83.3085 304.527 77.9319 305.997 66.3983ZM284.594 95.8828C282.303 97.4003 279.579 98.3976 276.033 98.1808C274.779 98.0941 272.617 97.6171 270.456 95.8828C270.023 95.5359 270.239 94.8855 270.801 94.7554C273.093 94.3652 275.471 92.7175 276.206 91.8503C276.379 91.6335 276.725 91.5902 276.941 91.807C277.719 92.4574 279.752 93.8015 284.335 94.6687C284.897 94.8421 285.07 95.5792 284.594 95.8828Z" fill="#351717"/>
<path d="M146.267 84.5872L125.775 84.5872C124.428 84.5872 123.363 85.6768 123.363 87.0061L123.363 91.1902C123.363 92.5414 124.449 93.6092 125.775 93.6092L140.748 93.6092L143.507 96.1371L143.507 93.6092L146.267 93.6092C147.615 93.6092 148.679 92.5196 148.679 91.1902L148.679 87.0061C148.679 85.6768 147.593 84.5872 146.267 84.5872Z" fill="#FCCC44"/>
<path d="M125.775 96.9219L146.268 96.9219C147.615 96.9219 148.68 98.0115 148.68 99.3408L148.68 108.995C148.68 110.346 147.593 111.414 146.268 111.414L131.295 111.414L128.535 113.942L128.535 111.414L125.775 111.414C124.428 111.414 123.363 110.324 123.363 108.995L123.363 99.3408C123.341 98.0115 124.428 96.9219 125.775 96.9219Z" fill="#A564A6"/>
<path d="M146.267 127.54L125.775 127.54C124.428 127.54 123.363 128.63 123.363 129.959L123.363 139.613C123.363 140.964 124.449 142.032 125.775 142.032L140.748 142.032L143.507 144.56L143.507 142.032L146.267 142.032C147.615 142.032 148.679 140.943 148.679 139.613L148.679 129.959C148.679 128.63 147.593 127.54 146.267 127.54Z" fill="#FCCC44"/>
<path d="M125.775 114.748L146.268 114.748C147.615 114.748 148.68 115.837 148.68 117.167L148.68 121.351C148.68 122.702 147.593 123.77 146.268 123.77L131.295 123.77L128.535 126.298L128.535 123.77L125.775 123.77C124.428 123.77 123.363 122.68 123.363 121.351L123.363 117.167C123.341 115.837 124.428 114.748 125.775 114.748Z" fill="#A564A6"/>
<path d="M140.052 121.133C140.376 121.133 140.639 120.86 140.639 120.523C140.639 120.186 140.376 119.912 140.052 119.912C139.728 119.912 139.465 120.186 139.465 120.523C139.465 120.86 139.728 121.133 140.052 121.133Z" fill="white"/>
<path d="M142.442 121.133C142.766 121.133 143.029 120.86 143.029 120.523C143.029 120.186 142.766 119.912 142.442 119.912C142.118 119.912 141.856 120.186 141.856 120.523C141.856 120.86 142.118 121.133 142.442 121.133Z" fill="white"/>
<path d="M144.833 121.133C145.157 121.133 145.42 120.86 145.42 120.523C145.42 120.186 145.157 119.912 144.833 119.912C144.509 119.912 144.246 120.186 144.246 120.523C144.246 120.86 144.509 121.133 144.833 121.133Z" fill="white"/>
<path d="M145.398 118.235L126.057 118.235C125.731 118.235 125.471 117.973 125.471 117.624C125.471 117.297 125.731 117.014 126.057 117.014L145.398 117.014C145.724 117.014 145.985 117.276 145.985 117.624C145.963 117.973 145.702 118.235 145.398 118.235Z" fill="white"/>
<path d="M137.77 121.133L126.057 121.133C125.731 121.133 125.471 120.871 125.471 120.523C125.471 120.196 125.731 119.912 126.057 119.912L137.77 119.912C138.096 119.912 138.357 120.174 138.357 120.523C138.357 120.871 138.096 121.133 137.77 121.133Z" fill="white"/>
<path d="M140.052 91.4298C140.376 91.4298 140.639 91.1566 140.639 90.8196C140.639 90.4827 140.376 90.2095 140.052 90.2095C139.728 90.2095 139.465 90.4827 139.465 90.8196C139.465 91.1566 139.728 91.4298 140.052 91.4298Z" fill="white"/>
<path d="M142.442 91.4298C142.766 91.4298 143.029 91.1566 143.029 90.8196C143.029 90.4827 142.766 90.2095 142.442 90.2095C142.118 90.2095 141.856 90.4827 141.856 90.8196C141.856 91.1566 142.118 91.4298 142.442 91.4298Z" fill="white"/>
<path d="M144.833 91.4298C145.157 91.4298 145.42 91.1566 145.42 90.8196C145.42 90.4827 145.157 90.2095 144.833 90.2095C144.509 90.2095 144.246 90.4827 144.246 90.8196C144.246 91.1566 144.509 91.4298 144.833 91.4298Z" fill="white"/>
<path d="M145.398 88.5317L126.057 88.5317C125.731 88.5317 125.471 88.2702 125.471 87.9215C125.471 87.5728 125.731 87.3113 126.057 87.3113L145.398 87.3113C145.724 87.3113 145.985 87.5728 145.985 87.9215C145.985 88.2702 145.702 88.5317 145.398 88.5317Z" fill="white"/>
<path d="M137.77 91.4298L126.057 91.4298C125.731 91.4298 125.471 91.1683 125.471 90.8196C125.471 90.4928 125.731 90.2095 126.057 90.2095L137.77 90.2095C138.096 90.2095 138.357 90.471 138.357 90.8196C138.357 91.1683 138.096 91.4298 137.77 91.4298Z" fill="white"/>
<path d="M140.052 107.426C140.376 107.426 140.639 107.153 140.639 106.816C140.639 106.479 140.376 106.206 140.052 106.206C139.728 106.206 139.465 106.479 139.465 106.816C139.465 107.153 139.728 107.426 140.052 107.426Z" fill="white"/>
<path d="M142.442 107.426C142.766 107.426 143.029 107.153 143.029 106.816C143.029 106.479 142.766 106.206 142.442 106.206C142.118 106.206 141.856 106.479 141.856 106.816C141.856 107.153 142.118 107.426 142.442 107.426Z" fill="white"/>
<path d="M144.833 107.426C145.157 107.426 145.42 107.153 145.42 106.816C145.42 106.479 145.157 106.206 144.833 106.206C144.509 106.206 144.246 106.479 144.246 106.816C144.246 107.153 144.509 107.426 144.833 107.426Z" fill="white"/>
<path d="M145.398 101.455L132.099 101.455C131.773 101.455 131.512 101.171 131.512 100.845C131.512 100.518 131.773 100.234 132.099 100.234L145.398 100.234C145.724 100.234 145.985 100.518 145.985 100.845C145.985 101.171 145.702 101.455 145.398 101.455Z" fill="white"/>
<path d="M145.398 104.505L126.057 104.505C125.731 104.505 125.471 104.222 125.471 103.895C125.471 103.546 125.731 103.285 126.057 103.285L145.398 103.285C145.724 103.285 145.985 103.568 145.985 103.895C145.963 104.222 145.702 104.505 145.398 104.505Z" fill="white"/>
<path d="M137.77 107.426L126.057 107.426C125.731 107.426 125.471 107.143 125.471 106.816C125.471 106.467 125.731 106.206 126.057 106.206L137.77 106.206C138.096 106.206 138.357 106.489 138.357 106.816C138.357 107.164 138.096 107.426 137.77 107.426Z" fill="white"/>
<path d="M140.052 138.502C140.376 138.502 140.639 138.229 140.639 137.892C140.639 137.555 140.376 137.281 140.052 137.281C139.728 137.281 139.465 137.555 139.465 137.892C139.465 138.229 139.728 138.502 140.052 138.502Z" fill="white"/>
<path d="M142.442 138.502C142.766 138.502 143.029 138.229 143.029 137.892C143.029 137.555 142.766 137.281 142.442 137.281C142.118 137.281 141.856 137.555 141.856 137.892C141.856 138.229 142.118 138.502 142.442 138.502Z" fill="white"/>
<path d="M144.833 138.502C145.157 138.502 145.42 138.229 145.42 137.892C145.42 137.555 145.157 137.281 144.833 137.281C144.509 137.281 144.246 137.555 144.246 137.892C144.246 138.229 144.509 138.502 144.833 138.502Z" fill="white"/>
<path d="M145.398 132.531L132.099 132.531C131.773 132.531 131.512 132.247 131.512 131.921C131.512 131.572 131.773 131.31 132.099 131.31L145.398 131.31C145.724 131.31 145.985 131.594 145.985 131.921C145.963 132.247 145.702 132.531 145.398 132.531Z" fill="white"/>
<path d="M145.398 135.581L126.057 135.581C125.731 135.581 125.471 135.298 125.471 134.971C125.471 134.623 125.731 134.361 126.057 134.361L145.398 134.361C145.724 134.361 145.985 134.644 145.985 134.971C145.963 135.298 145.702 135.581 145.398 135.581Z" fill="white"/>
<path d="M137.77 138.502L126.057 138.502C125.731 138.502 125.471 138.219 125.471 137.892C125.471 137.543 125.731 137.281 126.057 137.281L137.77 137.281C138.096 137.281 138.357 137.565 138.357 137.892C138.357 138.219 138.096 138.502 137.77 138.502Z" fill="white"/>
<path d="M125.775 66.3032L146.267 66.3032C147.615 66.3032 148.68 67.3928 148.68 68.7222L148.68 78.398C148.68 79.7491 147.593 80.817 146.267 80.817L131.295 80.817L128.535 83.3449L128.535 80.817L125.775 80.817C124.428 80.817 123.363 79.7273 123.363 78.398L123.363 68.744C123.341 67.3928 124.428 66.3032 125.775 66.3032Z" fill="#A564A6"/>
<path d="M140.052 77.2648C140.376 77.2648 140.639 76.9916 140.639 76.6546C140.639 76.3176 140.376 76.0444 140.052 76.0444C139.728 76.0444 139.465 76.3176 139.465 76.6546C139.465 76.9916 139.728 77.2648 140.052 77.2648Z" fill="white"/>
<path d="M142.442 77.2648C142.766 77.2648 143.029 76.9916 143.029 76.6546C143.029 76.3176 142.766 76.0444 142.442 76.0444C142.118 76.0444 141.856 76.3176 141.856 76.6546C141.856 76.9916 142.118 77.2648 142.442 77.2648Z" fill="white"/>
<path d="M144.833 77.2648C145.157 77.2648 145.42 76.9916 145.42 76.6546C145.42 76.3176 145.157 76.0444 144.833 76.0444C144.509 76.0444 144.246 76.3176 144.246 76.6546C144.246 76.9916 144.509 77.2648 144.833 77.2648Z" fill="white"/>
<path d="M145.398 71.3154L132.099 71.3154C131.773 71.3154 131.512 71.0321 131.512 70.7052C131.512 70.3565 131.773 70.095 132.099 70.095L145.398 70.095C145.724 70.095 145.985 70.3783 145.985 70.7052C145.963 71.0321 145.702 71.3154 145.398 71.3154Z" fill="white"/>
<path d="M145.398 74.3444L126.057 74.3444C125.731 74.3444 125.471 74.0611 125.471 73.7342C125.471 73.4073 125.731 73.124 126.057 73.124L145.398 73.124C145.724 73.124 145.985 73.4073 145.985 73.7342C145.985 74.0611 145.702 74.3444 145.398 74.3444Z" fill="white"/>
<path d="M137.77 77.2866L126.057 77.2866C125.731 77.2866 125.471 77.0033 125.471 76.6764C125.471 76.3277 125.731 76.0662 126.057 76.0662L137.77 76.0662C138.096 76.0662 138.357 76.3495 138.357 76.6764C138.357 77.0032 138.096 77.2866 137.77 77.2866Z" fill="white"/>
</g>
<path d="M110.946 241.04L159.762 207.811C162.971 205.626 167.166 206.676 169.189 210.064L183.916 234.72C185.972 238.163 185.009 242.646 181.851 244.795L146.184 269.074L143.458 279.991L139.61 273.549L133.036 278.024C129.826 280.209 125.631 279.159 123.608 275.772L108.915 251.171C106.807 247.763 107.737 243.225 110.946 241.04Z" fill="#FF6680"/>
<path d="M161.578 245.388C162.363 244.85 162.595 243.728 162.095 242.882C161.596 242.036 160.554 241.787 159.769 242.325C158.983 242.864 158.752 243.986 159.251 244.831C159.751 245.677 160.792 245.927 161.578 245.388Z" fill="white"/>
<path d="M167.271 241.511C168.056 240.973 168.288 239.851 167.789 239.005C167.289 238.159 166.247 237.91 165.462 238.448C164.677 238.986 164.445 240.109 164.945 240.954C165.444 241.8 166.486 242.05 167.271 241.511Z" fill="white"/>
<path d="M172.967 237.635C173.752 237.096 173.984 235.974 173.484 235.128C172.985 234.283 171.943 234.033 171.158 234.572C170.372 235.11 170.141 236.232 170.64 237.078C171.14 237.924 172.182 238.173 172.967 237.635Z" fill="white"/>
<path d="M165.278 221.481L133.527 243.145C132.749 243.676 131.713 243.403 131.236 242.599C130.727 241.741 130.968 240.673 131.746 240.142L163.498 218.478C164.276 217.947 165.312 218.219 165.789 219.024C166.214 219.863 166.005 220.985 165.278 221.481Z" fill="white"/>
<path d="M169.891 229.195L123.746 260.66C122.968 261.19 121.933 260.918 121.456 260.115C120.979 259.312 121.188 258.191 121.966 257.661L168.11 226.196C168.888 225.665 169.924 225.937 170.4 226.741C170.877 227.544 170.616 228.7 169.891 229.195Z" fill="white"/>
<path d="M156.196 249.066L128.224 268.156C127.446 268.687 126.41 268.415 125.933 267.61C125.424 266.752 125.665 265.684 126.444 265.152L154.415 246.062C155.193 245.531 156.229 245.803 156.706 246.608C157.183 247.412 156.974 248.534 156.196 249.066Z" fill="white"/>
<path d="M427.9 199.621L342.966 140.257C337.382 136.354 329.999 138.104 326.375 144.004L300.004 186.942C296.321 192.938 297.914 200.824 303.408 204.664L365.465 248.038L370.014 267.251L376.904 256.033L388.342 264.028C393.927 267.931 401.31 266.18 404.933 260.281L431.245 217.44C435.018 211.507 433.484 203.524 427.9 199.621Z" fill="#FCCC44"/>
<path d="M338.585 206.307C337.251 205.305 336.932 203.32 337.872 201.873C338.813 200.425 340.658 200.064 341.992 201.065C343.327 202.067 343.646 204.052 342.705 205.5C341.764 206.947 339.919 207.309 338.585 206.307Z" fill="white"/>
<path d="M328.905 199.092C327.57 198.09 327.251 196.105 328.192 194.657C329.133 193.21 330.978 192.849 332.312 193.85C333.647 194.852 333.966 196.837 333.025 198.284C332.084 199.732 330.239 200.093 328.905 199.092Z" fill="white"/>
<path d="M319.225 191.876C317.89 190.874 317.571 188.889 318.512 187.441C319.453 185.994 321.298 185.632 322.632 186.634C323.967 187.635 324.286 189.621 323.345 191.068C322.404 192.516 320.559 192.877 319.225 191.876Z" fill="white"/>
<path d="M333.95 164.092L387.918 204.414C389.24 205.402 391.077 205.001 391.975 203.625C392.933 202.157 392.593 200.266 391.27 199.278L337.303 158.956C335.98 157.967 334.143 158.369 333.245 159.745C332.435 161.187 332.715 163.17 333.95 164.092Z" fill="white"/>
<path d="M325.272 177.289L403.706 235.854C405.028 236.841 406.863 236.44 407.761 235.066C408.659 233.691 408.379 231.71 407.057 230.723L328.623 172.157C327.301 171.17 325.466 171.572 324.568 172.946C323.67 174.321 324.038 176.367 325.272 177.289Z" fill="white"/>
<path d="M347.733 213.147L395.275 248.677C396.598 249.666 398.435 249.264 399.333 247.888C400.291 246.42 399.952 244.527 398.628 243.539L351.086 208.009C349.763 207.02 347.926 207.421 347.028 208.798C346.129 210.174 346.409 212.158 347.733 213.147Z" fill="white"/>
<defs>
<linearGradient id="paint0_linear" x1="391.426" y1="230.153" x2="33.6727" y2="187.235" gradientUnits="userSpaceOnUse">
<stop offset="0.0310677" stop-color="#FF2D62"/>
<stop offset="1" stop-color="#FFCB58"/>
</linearGradient>
</defs>
</svg>
